<svg version="1" xmlns="http://www.w3.org/2000/svg" width="533.333" height="533.333" viewBox="0 0 400.000000 400.000000"><path d="M0 200v200h400V0H0v200zm380 0v180H20V20h360v180z"/><path d="M304.7 88.6c-.1.1-3.8.5-8.2.9-4.4.3-9.1.8-10.5 1-1.4.2-6.1.6-10.4 1-4.3.4-8.6.8-9.5 1-.9.1-5.4.6-10.1 1-4.7.4-9.2.9-10.1 1-.9.2-5.8.6-11 1s-9.6.8-9.9 1c-.3.2-4.8.6-10 1s-9.7.8-10 1c-.3.2-4.5.6-9.5 1-4.9.3-10.3.8-12 1-1.6.3-5.7.7-9 1-3.3.3-8.2.7-11 1-2.7.3-7 .8-9.5 1-2.5.2-6.1.7-8 .9-1.9.3-7.3.8-12 1.2-4.7.3-8.7.7-9.1.9-.3.3-.6 27.8-.7 61.2 0 33.4-.1 61.5-.1 62.3-.1 1.2-1.6 1.5-7.8 1.5-18.7-.2-35.6 9.2-46.5 25.9-15.7 24.2-8.6 58 15.7 74.4 11.9 8.1 26.5 11.1 41.5 8.7 14.9-2.3 30.4-14.3 38.4-29.5 5.9-11.1 5.9-11.4 6.1-72.7.1-31 .3-56.5.6-56.7.2-.2 2.2-.7 4.4-1 3.8-.5 6.4-.8 19.3-2.1 2.8-.3 7.3-.7 10-1 2.6-.3 7.6-.7 11.2-1 3.5-.3 7.6-.7 9-1 1.4-.2 6.3-.7 11-1 4.6-.4 8.7-.8 9-1 .3-.1 4.5-.6 9.5-1 4.9-.4 9.3-.9 9.7-1.1.8-.5 1.4 25.9 1 46.2l-.3 14-7.2-.1c-20.6-.5-40.6 11.9-49.6 30.8-4.9 10.2-6.1 15.9-5.7 26.7.8 18.6 10.9 35.1 27.6 45 29 17.2 66.8 3.3 79.1-29 1.1-2.8 2.2-6.8 2.6-8.8.7-4 1.1-203.5.5-206.5-.4-1.4-1.3-1.7-4.4-1.5-2.1.1-4 .3-4.1.4z"/></svg>