<svg width="30" height="30" viewBox="0 0 30 30" fill="none" xmlns="http://www.w3.org/2000/svg">
<path d="M8.125 7.5C8.47917 7.5 8.77583 7.62 9.015 7.86C9.255 8.09917 9.375 8.39583 9.375 8.75L9.375 21.25C9.375 21.6042 9.255 21.9012 9.015 22.1412C8.77583 22.3804 8.47917 22.5 8.125 22.5C7.77083 22.5 7.47417 22.3804 7.235 22.1412C6.995 21.9012 6.875 21.6042 6.875 21.25V8.75C6.875 8.39583 6.995 8.09917 7.235 7.86C7.47417 7.62 7.77083 7.5 8.125 7.5ZM21.1875 8.78125C21.6042 8.48958 22.0312 8.46875 22.4687 8.71875C22.9062 8.96875 23.125 9.34375 23.125 9.84375V20.1562C23.125 20.6563 22.9062 21.0263 22.4687 21.2663C22.0312 21.5054 21.6042 21.4896 21.1875 21.2187L13.4375 16.0312C13.0625 15.7812 12.875 15.4375 12.875 15C12.875 14.5625 13.0625 14.2188 13.4375 13.9688L21.1875 8.78125Z" fill="#CCCCCC"/>
</svg>
