<svg width="30" height="30" viewBox="0 0 30 30" fill="none" xmlns="http://www.w3.org/2000/svg">
<path d="M21.875 22.5C21.5208 22.5 21.2242 22.38 20.985 22.14C20.745 21.9008 20.625 21.6042 20.625 21.25V8.75C20.625 8.39583 20.745 8.09875 20.985 7.85875C21.2242 7.61958 21.5208 7.5 21.875 7.5C22.2292 7.5 22.5258 7.61958 22.765 7.85875C23.005 8.09875 23.125 8.39583 23.125 8.75V21.25C23.125 21.6042 23.005 21.9008 22.765 22.14C22.5258 22.38 22.2292 22.5 21.875 22.5ZM8.8125 21.2188C8.39583 21.5104 7.96875 21.5312 7.53125 21.2812C7.09375 21.0312 6.875 20.6563 6.875 20.1562V9.84375C6.875 9.34375 7.09375 8.97375 7.53125 8.73375C7.96875 8.49458 8.39583 8.51042 8.8125 8.78125L16.5625 13.9688C16.9375 14.2188 17.125 14.5625 17.125 15C17.125 15.4375 16.9375 15.7812 16.5625 16.0312L8.8125 21.2188Z" fill="#CCCCCC"/>
</svg>
