<svg width="30" height="30" viewBox="0 0 30 30" fill="none" xmlns="http://www.w3.org/2000/svg">
<path d="M17.5 7.5H5C4.3125 7.5 3.75 8.0625 3.75 8.75C3.75 9.4375 4.3125 10 5 10H17.5C18.1875 10 18.75 9.4375 18.75 8.75C18.75 8.0625 18.1875 7.5 17.5 7.5ZM17.5 12.5H5C4.3125 12.5 3.75 13.0625 3.75 13.75C3.75 14.4375 4.3125 15 5 15H17.5C18.1875 15 18.75 14.4375 18.75 13.75C18.75 13.0625 18.1875 12.5 17.5 12.5ZM5 20H12.5C13.1875 20 13.75 19.4375 13.75 18.75C13.75 18.0625 13.1875 17.5 12.5 17.5H5C4.3125 17.5 3.75 18.0625 3.75 18.75C3.75 19.4375 4.3125 20 5 20ZM23.75 7.5C22.375 7.5 21.25 8.625 21.25 10V17.725C20.8625 17.5875 20.4375 17.5 20 17.5C17.7 17.5 15.9 19.55 16.3125 21.925C16.575 23.4375 17.8125 24.675 19.325 24.9375C21.7 25.35 23.75 23.55 23.75 21.25V10H26.25C26.9375 10 27.5 9.4375 27.5 8.75C27.5 8.0625 26.9375 7.5 26.25 7.5H23.75Z" fill="#9A9A9A"/>
</svg>
