<svg width="30" height="30" viewBox="0 0 30 30" fill="none" xmlns="http://www.w3.org/2000/svg">
<path d="M6 6C5.20435 6 4.44129 6.31607 3.87868 6.87868C3.31607 7.44129 3 8.20435 3 9V21C3 21.7956 3.31607 22.5587 3.87868 23.1213C4.44129 23.6839 5.20435 24 6 24H24C24.7956 24 25.5587 23.6839 26.1213 23.1213C26.6839 22.5587 27 21.7956 27 21V9C27 8.20435 26.6839 7.44129 26.1213 6.87868C25.5587 6.31607 24.7956 6 24 6H6ZM15 21C14.8011 21 14.6103 20.921 14.4697 20.7803C14.329 20.6397 14.25 20.4489 14.25 20.25V11.5605L11.781 14.031C11.6402 14.1718 11.4492 14.2509 11.25 14.2509C11.0508 14.2509 10.8598 14.1718 10.719 14.031C10.5782 13.8902 10.4991 13.6992 10.4991 13.5C10.4991 13.3008 10.5782 13.1098 10.719 12.969L14.469 9.219C14.5387 9.14916 14.6214 9.09374 14.7126 9.05593C14.8037 9.01812 14.9013 8.99866 15 8.99866C15.0987 8.99866 15.1963 9.01812 15.2874 9.05593C15.3786 9.09374 15.4613 9.14916 15.531 9.219L19.281 12.969C19.4218 13.1098 19.5009 13.3008 19.5009 13.5C19.5009 13.6992 19.4218 13.8902 19.281 14.031C19.1402 14.1718 18.9492 14.2509 18.75 14.2509C18.5508 14.2509 18.3598 14.1718 18.219 14.031L15.75 11.5605V20.25C15.75 20.4489 15.671 20.6397 15.5303 20.7803C15.3897 20.921 15.1989 21 15 21Z" fill="#F2F2F2"/>
</svg>
